<?xml version="1.0" standalone="no"?>
<!DOCTYPE svg PUBLIC "-//W3C//DTD SVG 20010904//EN"
 "http://www.w3.org/TR/2001/REC-SVG-20010904/DTD/svg10.dtd">
<svg version="1.0" xmlns="http://www.w3.org/2000/svg"
 width="500.000000pt" height="500.000000pt" viewBox="0 0 500.000000 500.000000"
 preserveAspectRatio="xMidYMid meet">
<metadata>
Created by potrace 1.11, written by Peter Selinger 2001-2013
</metadata>
<g transform="translate(0.000000,500.000000) scale(0.100000,-0.100000)"
fill="#000000" stroke="none">
<path d="M1359 3655 c-503 -69 -860 -393 -965 -875 -27 -121 -27 -429 0 -550
106 -486 463 -807 973 -875 203 -27 378 -12 554 48 148 51 239 107 347 215 51
51 92 97 90 102 -3 8 -387 300 -395 300 -1 0 -33 -31 -70 -68 -110 -110 -235
-162 -390 -162 -99 0 -164 15 -258 60 -460 221 -505 979 -75 1265 100 66 192
96 315 103 168 8 300 -35 405 -134 l46 -43 186 151 186 152 -25 33 c-37 48
-138 126 -224 172 -193 104 -441 141 -700 106z"/>
<path d="M3525 3659 c-508 -56 -885 -390 -991 -879 -27 -121 -27 -429 0 -550
127 -582 612 -920 1271 -886 292 15 526 69 748 173 l77 36 0 579 0 578 -430 0
-430 0 0 -225 0 -225 195 0 195 0 0 -181 0 -180 -65 -30 c-132 -60 -204 -74
-380 -73 -146 0 -167 2 -240 27 -223 75 -381 247 -441 482 -13 51 -18 106 -17
205 0 117 4 147 27 225 38 126 86 207 175 295 84 83 156 126 271 162 65 20 95
23 225 23 213 -1 312 -32 458 -145 37 -27 68 -50 71 -50 2 0 79 82 171 182
l168 183 -48 41 c-204 180 -620 276 -1010 233z"/>
</g>
</svg>
