# This file uses centimeters as units for non-parametric coordinates.

mtllib Glass_shard_1.mtl
g default
v -0.318516 1.348701 -0.089909
v -0.445082 1.394173 0.010609
v 0.896914 -0.428642 -0.089936
v 0.530769 0.106814 -0.089916
v 0.530566 0.107183 -0.089936
v 0.530315 0.107515 -0.089910
v 0.530220 0.107607 -0.089876
v 0.240513 0.531244 -0.089928
v -0.078872 0.998268 -0.089928
v -0.415280 1.490181 -0.089928
v -0.464533 1.562219 -0.089910
v -0.787562 1.845952 0.045889
v -0.579224 1.729907 -0.089912
v -0.678242 1.785070 -0.025376
v -0.855132 1.883583 0.089919
v -0.572214 1.469866 0.089932
v -0.544965 1.430051 0.089923
v -0.429740 1.261561 0.089923
v -0.259609 1.012756 0.089932
v -0.232625 0.973297 0.089932
v -0.199783 0.925276 0.089932
v -0.199627 0.925047 0.089932
v -0.005608 0.641343 0.089932
v 0.073274 0.525998 0.089932
v 0.363395 0.101768 0.089921
v 0.534209 0.101767 -0.089914
v -0.350550 1.145736 0.089932
v -0.287008 1.052821 0.089932
v -1.030596 1.959446 -0.017094
v -1.037843 1.963952 -0.007625
v -1.029906 1.960886 0.000835
v -1.914545 1.279983 0.089910
v -1.945296 1.151192 0.003965
v -1.997088 1.204814 0.089910
v -1.060214 1.977844 0.021572
v -1.112501 2.010354 0.089912
v -1.106815 2.007566 0.089914
v -1.026505 1.968008 0.089914
v -0.946362 1.928532 0.089906
v 0.401604 1.246795 -0.089936
v -0.951561 1.913318 -0.089905
v -0.887226 1.883135 -0.074727
v -0.822645 1.852831 -0.059489
v -0.877218 1.878436 -0.072399
v -0.951160 1.913128 -0.089891
v -1.006460 1.944425 -0.048659
v -0.974867 1.924784 -0.089921
v -1.021224 1.882582 -0.089925
v -1.791328 1.181257 -0.089932
v -1.888704 1.092597 -0.089925
v -1.978889 1.010472 -0.089925
v -2.332499 0.688429 -0.089932
v -2.708430 0.346081 -0.089932
v -2.864794 0.203707 -0.089925
v -2.909822 0.250332 -0.015218
v -2.936551 0.138360 -0.089925
v -3.068870 0.101771 -0.018378
v -2.976708 0.101768 -0.089921
v -3.208310 0.101767 0.089914
v -2.973178 0.315924 0.089909
v -2.953814 0.333542 0.089928
v -2.873050 0.406743 0.089936
v -2.873334 0.406786 0.089936
v -2.873475 0.406711 0.089936
v -2.873573 0.406616 0.089916
v -2.873692 0.406567 0.089936
v -2.872157 0.407910 0.089916
v -2.608410 0.648093 0.089927
v -2.572992 0.680347 0.089927
v -2.536061 0.713978 0.089927
v -2.446437 0.795598 0.089927
v -2.082440 1.127075 0.089927
vt 0.500000 0.503180
vt 0.500000 0.503180
vt 0.499999 0.500000
vt 0.500000 0.500000
vt 0.500001 0.500000
vt 0.500000 0.499999
vt 0.478323 0.521676
vt 0.510053 0.749870
vt 0.504556 0.738994
vt 0.493883 0.508400
vt 0.504555 0.738993
vt 0.498506 0.727026
vt 0.492135 0.714421
vt 0.503727 0.500000
vt 0.492134 0.714420
vt 0.491201 0.712574
vt 0.507607 0.492393
vt 0.489030 0.708278
vt 0.491993 0.494447
vt 0.494374 0.495092
vt 0.497551 0.499994
vt 0.507107 0.495074
vt 0.494377 0.495093
vt 0.494375 0.495092
vt 0.498637 0.496247
vt 0.483803 0.045661
vt 0.489162 0.035059
vt 0.500000 0.497490
vt 0.489162 0.035058
vt 0.497059 0.500000
vt 0.489677 0.034039
vt 0.491860 0.029720
vt 0.495083 0.023345
vt 0.492717 0.503705
vt 0.495594 0.022334
vt 0.495594 0.022334
vt 0.496216 0.021104
vt 0.496215 0.021103
vt 0.496219 0.021098
vt 0.496219 0.021097
vt 0.499893 0.013828
vt 0.445584 0.007816
vt 0.499894 0.013827
vt 0.501388 0.010872
vt 0.501388 0.010871
vt 0.506882 0.000001
vt 0.478234 0.521752
vt 0.506882 0.999971
vt 0.510118 0.750035
vt 0.493360 0.026753
vt 0.493415 0.503109
vt 0.493361 0.026752
vt 0.494564 0.024372
vt 0.498102 0.500973
vt 0.499759 0.500241
vt 0.498062 0.500735
vt 0.500000 0.500001
vt 0.500000 0.500227
vt 0.500000 0.500000
vt 0.500001 0.500000
vt 0.500000 0.499999
vt 0.477115 0.497886
vt 0.477114 0.497886
vt 0.475000 0.497845
vt 0.475001 0.500000
vt 0.497940 0.500000
vt 0.475001 0.500000
vt 0.475000 0.500000
vt 0.475000 0.500001
vt 0.460558 0.026275
vt 0.475000 0.497845
vt 0.497941 0.500000
vt 0.497656 0.498281
vt 0.502398 0.500000
vt 0.478929 0.048909
vt 0.501198 0.498803
vt 0.479036 0.048838
vt 0.500000 0.497607
vt 0.480558 0.047824
vt 0.482076 0.046812
vt 0.497557 0.500000
vt 0.500000 0.497607
vt 0.497557 0.499999
vt 0.481977 0.703578
vt 0.498956 0.500287
vt 0.497906 0.500348
vt 0.497219 0.502782
vt 0.481522 0.703294
vt 0.480658 0.704366
vt 0.466072 0.722336
vt 0.475000 0.502354
vt 0.466071 0.722337
vt 0.472691 0.502310
vt 0.464228 0.724609
vt 0.462519 0.726714
vt 0.455822 0.734965
vt 0.455822 0.734967
vt 0.448702 0.743738
vt 0.448701 0.743739
vt 0.445740 0.747387
vt 0.450000 0.500000
vt 0.450000 0.501873
vt 0.450000 0.500001
vt 0.448163 0.501838
vt 0.449999 0.500000
vt 0.450000 0.500000
vt 0.444380 0.749063
vt 0.443620 0.749999
vt 0.439233 0.999959
vt 0.443619 0.750029
vt 0.445878 0.500000
vt 0.447133 0.501818
vt 0.450000 0.497364
vt 0.439233 0.000001
vt 0.443687 0.005489
vt 0.444053 0.005939
vt 0.444054 0.005940
vt 0.445574 0.007812
vt 0.452586 0.497414
vt 0.445578 0.007817
vt 0.445601 0.007846
vt 0.445602 0.007847
vt 0.450595 0.014000
vt 0.450596 0.014001
vt 0.451266 0.014826
vt 0.451267 0.014827
vt 0.451966 0.015688
vt 0.451967 0.015689
vt 0.453663 0.017780
vt 0.472813 0.497803
vt 0.453664 0.017781
vt 0.460555 0.026273
vt 0.500000 0.500001
vt 0.478334 0.521667
vt 0.485731 0.515355
vt 0.502470 0.501073
vt 0.503727 0.500000
vt 0.506654 0.497503
vt 0.507916 0.490736
vt 0.500695 0.496898
vt 0.507607 0.492392
vt 0.500000 0.500000
vt 0.500000 0.497491
vt 0.492027 0.504293
vt 0.491189 0.505008
vt 0.491184 0.505012
vt 0.486233 0.509237
vt 0.484219 0.510955
vt 0.476815 0.517274
vt 0.497059 0.500000
vt 0.495037 0.501725
vt 0.500000 0.500227
vt 0.475000 0.499999
vt 0.500743 0.500185
vt 0.502483 0.500085
vt 0.502398 0.500000
vt 0.501197 0.498802
vt 0.500000 0.500000
vt 0.499759 0.500241
vt 0.499999 0.500000
vt 0.497557 0.500000
vt 0.498233 0.501767
vt 0.498405 0.502805
vt 0.477493 0.502402
vt 0.498233 0.501766
vt 0.497218 0.502782
vt 0.475000 0.502354
vt 0.463633 0.502136
vt 0.454004 0.501950
vt 0.450000 0.501873
vt 0.474999 0.500000
vt 0.472690 0.502310
vt 0.448162 0.501838
vt 0.443977 0.497248
vt 0.445877 0.500000
vt 0.450495 0.497373
vt 0.452551 0.497413
vt 0.450000 0.499999
vt 0.450000 0.497364
vt 0.459341 0.497543
vt 0.460249 0.497561
vt 0.461192 0.497579
vt 0.463490 0.497623
vt 0.452587 0.497414
vt 0.463738 0.030194
vt 0.462174 0.028267
vt 0.497010 0.495806
vt 0.494379 0.495094
vt 0.493968 0.718046
vt 0.498506 0.727026
vt 0.510118 0.750000
vt 0.441874 0.849459
vt 0.495083 0.023346
vt 0.494564 0.024371
vt 0.510087 0.749935
vt 0.478278 0.521714
vt 0.478329 0.521672
vt 0.510049 0.749861
vt 0.478335 0.521662
vt 0.478336 0.521664
vt 0.486066 0.706302
vt 0.497554 0.499997
vt 0.494376 0.495092
vt 0.496808 0.498845
vt 0.496691 0.498666
vt 0.494375 0.495092
vt 0.445583 0.007816
vt 0.452554 0.497412
vt 0.445575 0.007816
vt 0.445571 0.007811
vt 0.452549 0.497412
vt 0.445576 0.007814
vt 0.445576 0.007814
vt 0.478323 0.521677
vt 0.497556 0.500000
vt 0.497556 0.500000
vt 0.445573 0.007813
vt 0.445573 0.007813
vn 0.649603 0.444243 0.616980
vn 0.502426 0.318055 0.803996
vn 0.649723 0.444337 0.616786
vn 0.435896 0.144201 0.888370
vn -0.220773 -0.151124 -0.963546
vn -0.000000 -0.000000 -0.000000
vn -0.220773 -0.151124 -0.963546
vn 0.000000 0.000000 0.000000
vn 0.221195 0.151090 0.963454
vn 0.221195 0.151090 0.963454
vn -0.354265 -0.242372 -0.903190
vn 0.649722 0.444336 0.616788
vn -0.000000 -0.000000 -0.000000
vn -0.223423 -0.453350 0.862876
vn -0.223423 -0.453350 0.862876
vn -0.000000 -0.000000 0.000000
vn -0.056650 -0.116088 -0.991622
vn -0.000000 -0.000000 -0.000000
vn -0.056650 -0.116088 -0.991622
vn 0.440172 0.893549 -0.088420
vn 0.445774 0.884087 -0.140270
vn 0.438904 0.895650 -0.071934
vn 0.440158 0.893528 -0.088705
vn 0.404764 0.909922 0.090600
vn 0.411749 0.843174 -0.345716
vn -0.000006 0.000037 1.000000
vn -0.003115 0.016059 0.999866
vn 0.000002 0.000001 1.000000
vn 0.000000 -0.000000 0.000000
vn 0.018309 -0.223717 0.974482
vn 0.018309 -0.223717 0.974482
vn 0.000000 -0.000000 -0.000000
vn 0.000558 -0.000253 -1.000000
vn 0.000558 -0.000253 -1.000000
vn -0.279172 0.306454 -0.910027
vn -0.000000 -0.000000 -0.000000
vn -0.000000 -0.000000 -0.000000
vn 0.279172 -0.306455 0.910027
vn -0.661563 0.724353 -0.194028
vn -0.661563 0.724354 -0.194028
vn -0.661563 0.724354 -0.194028
vn 0.007297 -0.115809 0.993245
vn -0.003272 0.016884 0.999852
vn 0.649719 0.444333 0.616792
vn 0.649722 0.444336 0.616788
vn 0.649676 0.444294 0.616866
vn 0.649602 0.444271 0.616961
vn 0.649531 0.444212 0.617078
vn 0.649596 0.444270 0.616969
vn 0.649596 0.444270 0.616969
vn 0.649510 0.444193 0.617113
vn 0.649510 0.444193 0.617113
vn 0.649514 0.444194 0.617109
vn 0.649568 0.444207 0.617042
vn 0.649569 0.444207 0.617042
vn 0.649569 0.444207 0.617042
vn 0.649569 0.444207 0.617042
vn 0.649569 0.444207 0.617042
vn 0.649569 0.444207 0.617042
vn 0.649569 0.444207 0.617042
vn 0.649569 0.444207 0.617042
vn 0.649569 0.444207 0.617042
vn 0.649569 0.444207 0.617042
vn 0.649569 0.444207 0.617042
vn 0.649569 0.444207 0.617042
vn 0.439694 0.893738 -0.088890
vn 0.439086 0.893997 -0.089294
vn 0.440069 0.893600 -0.088420
vn -0.508729 0.558646 -0.655064
vn -0.508707 0.558613 -0.655109
vn -0.508768 0.558671 -0.655013
vn -0.508689 0.558601 -0.655134
vn -0.508730 0.558646 -0.655064
vn 0.439034 0.894018 -0.089340
vn 0.439034 0.894018 -0.089340
vn 0.439653 0.893774 -0.088734
vn 0.440145 0.893580 -0.088247
vn 0.440169 0.893565 -0.088277
vn 0.440159 0.893568 -0.088295
vn 0.439693 0.893738 -0.088893
vn 0.439693 0.893738 -0.088893
vn -0.508665 0.558575 -0.655175
vn -0.508665 0.558575 -0.655175
vn -0.508500 0.558631 -0.655254
vn -0.508666 0.558575 -0.655174
vn -0.508665 0.558574 -0.655175
vn -0.508666 0.558575 -0.655174
vn -0.508666 0.558575 -0.655174
vn -0.508647 0.558546 -0.655214
vn -0.508647 0.558545 -0.655214
vn -0.508647 0.558545 -0.655214
vn -0.508648 0.558545 -0.655213
vn -0.508701 0.558590 -0.655134
vn -0.508710 0.558500 -0.655204
vn -0.508751 0.558571 -0.655112
vn -0.508715 0.558493 -0.655206
vn -0.508756 0.558583 -0.655097
vn -0.508748 0.558613 -0.655078
vn -0.508718 0.558735 -0.654998
vn -0.508717 0.558735 -0.654998
vn -0.508769 0.558674 -0.655009
vn -0.508770 0.558673 -0.655009
vn -0.508770 0.558673 -0.655009
vn -0.508770 0.558673 -0.655009
vn -0.508770 0.558673 -0.655009
vn -0.508770 0.558673 -0.655009
vn -0.000002 -0.000001 1.000000
vn -0.000000 0.000002 1.000000
vn -0.000001 0.000002 1.000000
vn -0.000002 -0.000001 1.000000
vn 0.000001 0.000003 1.000000
vn 0.000001 0.000003 1.000000
vn -0.000008 0.000018 1.000000
vn -0.000003 0.000009 1.000000
vn -0.000023 0.000043 1.000000
vn -0.000023 0.000043 1.000000
vn -0.000023 0.000043 1.000000
vn -0.000023 0.000043 1.000000
vn -0.000023 0.000043 1.000000
vn -0.000023 0.000043 1.000000
vn -0.000023 0.000043 1.000000
vn 0.440166 0.893567 -0.088272
vn 0.440166 0.893567 -0.088272
vn 0.440166 0.893567 -0.088272
vn 0.440172 0.893549 -0.088420
vn 0.000015 0.000031 -1.000000
vn 0.000007 0.000011 -1.000000
vn 0.000006 0.000008 -1.000000
vn 0.000015 0.000031 -1.000000
vn 0.000015 0.000031 -1.000000
vn 0.000015 0.000031 -1.000000
vn 0.000015 0.000031 -1.000000
vn 0.000005 0.000006 -1.000000
vn 0.000003 0.000002 -1.000000
vn 0.000002 0.000001 -1.000000
vn 0.000005 0.000006 -1.000000
vn 0.000005 0.000006 -1.000000
vn 0.000002 -0.000025 -1.000000
vn 0.000002 -0.000030 -1.000000
vn 0.000002 -0.000037 -1.000000
vn 0.000002 -0.000037 -1.000000
vn 0.000002 -0.000037 -1.000000
vn 0.000002 -0.000037 -1.000000
vn 0.000002 -0.000037 -1.000000
vn -0.000001 -1.000000 -0.000001
vn -0.000001 -1.000000 -0.000001
vn -0.000001 -1.000000 -0.000001
vn -0.000001 -1.000000 -0.000001
vn -0.000001 -1.000000 -0.000001
vn -0.000002 -0.000036 1.000000
vn -0.000003 -0.000025 1.000000
vn -0.000003 -0.000030 1.000000
vn -0.000002 -0.000036 1.000000
vn -0.000002 -0.000036 1.000000
vn -0.000008 0.000063 1.000000
vn -0.000008 0.000063 1.000000
vn 0.000001 0.000001 1.000000
vn -0.003272 0.016884 0.999852
vn 0.000003 -0.000041 1.000000
vn 0.000002 -0.000035 1.000000
vn 0.000003 -0.000038 1.000000
vn 0.000003 -0.000041 1.000000
vn -0.000002 0.000002 1.000000
vn -0.000002 0.000003 1.000000
vn 0.000000 0.000000 -0.000000
vn -0.016971 0.222529 -0.974779
vn -0.016971 0.222529 -0.974778
vn -0.016971 0.222529 -0.974778
vn 0.009978 -0.130465 0.991403
s 1
g shard48
usemtl aiStandardSurface1SG
f 2/133/1 7/200/2 6/134/3
f 2/3/1 4/7/4 7/199/2
s off
f 4/8/5 3/195/6 26/191/7
f 3/196/8 4/7/9 26/47/10
s 1
f 6/134/3 5/197/11 8/135/12
f 5/198/11 4/8/4 8/9/13
s off
f 13/19/14 40/202/15 45/21/16
f 13/18/17 41/84/18 40/201/19
s 2
f 14/23/20 44/206/21 43/24/22
f 14/20/20 45/21/23 44/205/21
f 14/188/20 42/204/24 41/83/25
f 14/23/20 43/24/22 42/203/24
s 3
f 22/39/26 63/120/27 62/207/28
s off
f 23/43/29 64/213/30 65/118/31
f 23/41/32 62/42/33 64/212/34
s 4
usemtl shatterInteriorSG1
f 61/176/35 66/211/36 65/177/37
usemtl aiStandardSurface1SG
f 61/117/38 65/118/37 66/210/36
s off
usemtl shatterInteriorSG1
f 65/177/39 64/208/40 67/119/41
s 3
usemtl aiStandardSurface1SG
f 64/209/42 63/120/27 67/121/43
s 1
f 1/2/44 2/133/1 6/134/3 8/135/12 9/10/45
f 10/136/46 11/14/47 2/4/1 1/1/44
f 12/17/48 2/5/1 11/137/47 13/138/49 14/22/50
f 15/139/51 16/140/52 17/28/53 2/6/1 12/141/48
f 18/30/54 2/142/1 17/143/53
f 19/34/55 20/144/56 21/145/57 22/146/58 23/147/59 24/148/60 25/149/61 26/47/62 4/7/63 2/3/1 18/150/54 27/151/64 28/51/65
s 5
usemtl shatterInteriorSG1
f 29/55/66 30/152/67 31/57/68
s 6
usemtl aiStandardSurface1SG
f 32/63/69 33/153/70 34/64/71
f 35/72/72 33/67/70 32/62/69 36/73/73
s 5
usemtl shatterInteriorSG1
f 30/58/67 35/154/74 36/155/75 37/74/76 31/59/68
f 38/76/77 31/60/68 37/156/76
f 39/78/78 31/61/68 38/157/77
f 31/158/68 39/82/78 41/81/79
f 46/85/80 29/159/66 31/160/68 41/161/79 47/86/81
s 6
f 48/87/82 46/162/83 47/163/84
usemtl aiStandardSurface1SG
f 49/164/85 50/91/86 33/68/70 35/66/72 30/56/87 29/54/88 46/165/83 48/166/82
f 51/93/89 33/69/70 50/167/86
f 52/168/90 53/169/91 54/170/92 55/101/93 33/171/70 51/172/89
usemtl shatterInteriorSG1
f 56/104/94 55/103/93 54/102/92
f 57/111/95 55/105/93 56/173/94 58/112/96
f 59/174/97 60/113/98 55/106/93 57/175/95
f 61/176/99 65/177/100 67/119/101 55/178/93 60/179/98
usemtl aiStandardSurface1SG
f 68/180/102 69/181/103 70/182/104 71/183/105 72/130/106 34/71/71 33/65/70 55/101/93 67/184/101
s 7
f 28/53/107 27/52/108 71/129/109 70/128/110
f 18/32/111 17/31/112 16/29/113 72/132/114 71/131/109 27/50/108
f 16/27/113 15/26/115 39/80/116 38/79/117 37/77/118 36/75/119 32/185/120 34/186/121 72/70/114
s 5
f 15/25/122 12/187/123 14/188/124 41/83/79 39/82/78
s 2
f 14/20/20 13/19/125 45/21/23
s 8
f 11/16/126 10/15/127 49/90/128 48/89/129 47/88/130 41/84/131 13/18/132
f 1/189/133 9/190/134 52/96/135 51/95/136 50/94/137 49/92/128 10/13/127
f 9/12/134 8/11/138 53/98/139 52/97/135
f 8/9/138 4/8/140 26/191/141 58/108/142 56/107/143 54/100/144 53/99/139
s off
f 26/49/145 25/48/146 59/109/147 57/192/148 58/110/149
s 9
f 25/46/150 24/45/151 61/116/152 60/115/153 59/114/154
f 24/44/151 23/43/155 65/118/156 61/117/152
s 3
f 23/41/157 22/40/26 62/42/28
f 22/39/26 21/38/158 67/121/43 63/120/27
s 7
f 21/37/159 20/36/160 68/123/161 67/122/162
f 20/35/160 19/33/163 69/125/164 68/124/161
f 19/193/163 28/194/107 70/127/110 69/126/164
s 1
f 5/197/11 6/134/3 7/200/2 4/214/4
s 2
f 44/205/21 45/21/23 40/202/165 41/216/25
f 42/203/24 43/24/22 44/206/21 41/215/25
s off
f 64/212/166 62/42/167 65/217/168
s 3
f 62/207/28 63/120/27 64/209/42 65/218/169
