# Blender v2.79 (sub 0) OBJ File: ''
# www.blender.org
mtllib yellow2.mtl
o shard5_solidShatter1
v 0.797612 0.625674 3.027422
v -0.354951 1.150683 3.035988
v 0.791720 0.633404 1.760923
v -0.360845 1.158412 1.769489
v 1.944283 0.108396 1.752356
v 1.477509 0.313893 3.544447
v 1.692159 0.217062 3.305763
v 1.652293 0.234273 3.544447
v 1.532399 0.288889 3.544447
v 0.800019 0.622520 3.544448
v 1.739818 0.196487 3.020419
v 0.850827 0.599374 3.544448
v 0.332650 0.835426 3.544448
v 0.509355 0.754930 3.544448
v -0.352586 1.147581 3.544448
v 0.047605 0.965276 3.544448
v -0.282208 1.115521 3.544448
v -0.812211 1.356959 3.544448
v -0.597128 1.258980 3.544447
v -1.282794 1.573120 3.095328
v -1.320652 1.590572 3.043166
v -0.912869 1.402813 3.544448
v -0.956833 1.422842 3.544448
v -1.403550 1.628791 2.928947
v -1.508730 1.677281 2.784029
v -1.513411 1.683421 1.778056
v -1.914857 1.864520 2.224454
v -1.515182 1.680256 2.775139
v -2.234952 2.012093 1.783419
v -1.990841 1.899551 2.119762
v -2.233330 2.011345 1.785653
v -1.513580 1.683643 1.741593
v -2.265309 2.026089 1.741592
v -2.094329 1.948200 1.741592
v -2.083130 1.943098 1.741592
v -1.897457 1.858518 1.741592
v -1.713890 1.774894 1.741591
v -1.704614 1.770668 1.741592
v -1.531178 1.691661 1.741592
v -1.480619 1.668629 1.741593
v -0.360974 1.158582 1.741591
v -1.470605 1.664066 1.741592
v -1.058517 1.476343 1.741592
v -1.028652 1.462738 1.741592
v -0.666926 1.297956 1.741592
v -0.543530 1.241744 1.741592
v -0.528031 1.234684 1.741592
v -0.501302 1.222507 1.741592
v -0.486186 1.215621 1.741591
v -0.335756 1.147094 1.741591
v 0.791629 0.633522 1.741592
v 0.023100 0.983620 1.741592
v 0.025804 0.982388 1.741592
v 0.138844 0.930893 1.741592
v 0.221051 0.893445 1.741592
v 0.809104 0.625562 1.741592
v 1.944232 0.108462 1.741592
v 0.872676 0.596602 1.741592
v 0.910567 0.579341 1.741592
v 0.932307 0.569437 1.741592
v 1.107078 0.489822 1.741592
v 1.110200 0.488400 1.741592
v 1.117259 0.485183 1.741592
v 1.941661 0.109633 1.741592
v 1.953290 0.104333 1.742340
v 1.953414 0.104279 1.741592
v 1.951627 0.105051 1.752301
v 1.944482 0.108135 1.795076
v 1.817330 0.163025 2.556344
v 1.799603 0.170679 2.662477
v 1.938678 0.110641 1.829826
v -1.203941 5.224794 1.741593
v -0.897973 6.146906 1.741592
v 2.232823 6.656733 1.741593
v -1.065094 5.164583 1.931393
v -0.625498 6.351114 1.986232
v 0.098923 6.036955 2.976501
v 0.500207 7.120085 3.026561
v 0.776963 7.120085 3.357289
v 2.001142 7.120085 3.219784
v 0.400544 7.120085 2.907461
v 0.933579 7.120085 3.544449
v -0.804463 6.428724 1.741592
v -0.340605 7.120085 2.021774
v 2.120788 7.120085 2.516392
v -1.276489 5.006151 1.741592
v -0.340673 4.850424 2.921661
v 0.913878 7.060709 3.544448
v 0.731488 6.511034 3.544449
v 1.945916 7.120085 3.544449
v 2.252582 7.120085 1.741593
v -0.679693 6.804751 1.741593
v -0.575061 7.120085 1.741593
v 2.214110 7.120085 1.967756
v 1.979056 6.358557 3.158714
v -1.603419 4.020866 1.741593
v -1.504689 3.978050 1.876553
v 0.114922 4.652845 3.544449
v -0.780269 3.663893 2.866821
v -0.025543 4.229521 3.544449
v 0.352973 5.370279 3.544449
v 0.514400 5.856779 3.544449
v 0.707208 6.437853 3.544449
v 1.912208 6.329561 3.544449
v 2.194739 6.452108 1.914188
v -1.655005 3.865396 1.741593
v -0.284556 3.448919 3.544449
v -0.308909 3.375525 3.544449
v 1.893943 5.901239 3.544448
v 1.942460 5.096605 3.057512
v 2.158141 5.190153 1.812986
v -2.002896 2.816936 1.741591
v -1.944285 2.791517 1.821712
v -1.219864 2.477359 2.811980
v -0.404059 3.088766 3.544449
v -0.483869 2.848242 3.544448
v 1.858071 5.060003 3.544449
v 1.905862 3.834650 2.956309
v 2.062242 2.656395 1.741593
v 1.869264 2.572693 2.855107
v 1.832665 1.310740 2.753904
v 2.056039 2.510919 1.741593
v 2.114966 3.892859 1.741592
v 2.116378 3.925959 1.741593
v 2.132323 4.299908 1.741593
v 2.170514 5.195520 1.741593
v 2.173896 5.274798 1.741592
v 2.224650 6.465082 1.741593
v -2.033522 2.724640 1.741593
v -0.684035 2.244988 3.544447
v -0.782577 1.948009 3.544447
v -0.803606 1.884627 3.544448
v 1.835013 4.519300 3.544449
v 1.803933 3.790440 3.544448
v 1.776086 3.137362 3.544449
v 1.749797 2.520876 3.544448
v 1.717156 1.755423 3.544448
v 1.695661 1.251316 3.544448
v 1.658229 0.373486 3.544447
v 2.008105 1.386834 1.741592
v 1.953969 0.117273 1.741592
v 1.997109 1.128982 1.741592
vt 0.500000 0.475000
vt 0.500000 0.500000
vt 0.525000 0.475000
vt 0.525000 0.500000
vt 0.525000 0.450000
vt 0.489695 0.460305
vt 0.494375 0.455625
vt 0.489669 0.456514
vt 0.489687 0.459115
vt 0.489794 0.475000
vt 0.500000 0.454563
vt 0.489787 0.473898
vt 0.489863 0.485137
vt 0.489837 0.481304
vt 0.489963 0.500000
vt 0.489905 0.491320
vt 0.489953 0.498473
vt 0.490031 0.509969
vt 0.489999 0.505304
vt 0.498965 0.520131
vt 0.500000 0.520947
vt 0.490046 0.512153
vt 0.490052 0.513106
vt 0.502267 0.522733
vt 0.505143 0.525000
vt 0.525000 0.525000
vt 0.516248 0.533753
vt 0.505319 0.525139
vt 0.525000 0.540651
vt 0.518325 0.535390
vt 0.524956 0.540616
vt 0.525720 0.525000
vt 0.525830 0.541305
vt 0.525805 0.537596
vt 0.525803 0.537354
vt 0.525776 0.533326
vt 0.525749 0.529345
vt 0.525748 0.529144
vt 0.525722 0.525382
vt 0.525715 0.524285
vt 0.525551 0.500000
vt 0.525714 0.524068
vt 0.525653 0.515130
vt 0.525649 0.514482
vt 0.525596 0.506636
vt 0.525578 0.503960
vt 0.525575 0.503623
vt 0.525571 0.503044
vt 0.525569 0.502716
vt 0.525547 0.499453
vt 0.525382 0.475000
vt 0.525494 0.491669
vt 0.525494 0.491611
vt 0.525477 0.489159
vt 0.525465 0.487376
vt 0.525379 0.474621
vt 0.525213 0.450000
vt 0.525370 0.473242
vt 0.525364 0.472420
vt 0.525361 0.471949
vt 0.525335 0.468158
vt 0.525335 0.468090
vt 0.525334 0.467937
vt 0.525213 0.450056
vt 0.525196 0.449804
vt 0.525211 0.449801
vt 0.525000 0.449841
vt 0.524157 0.450000
vt 0.509149 0.452835
vt 0.507057 0.453230
vt 0.523472 0.450129
vt 0.487126 0.537937
vt 0.493166 0.519479
vt 0.554964 0.509275
vt 0.470208 0.450000
vt 0.475000 0.450000
vt 0.475000 0.425000
vt 0.469148 0.430852
vt 0.500000 0.425000
vt 0.520764 0.321815
vt 0.526227 0.275953
vt 0.550391 0.295021
vt 0.497037 0.402963
vt 0.500000 0.402179
vt 0.529318 0.250000
vt 0.495011 0.513838
vt 0.475000 0.408798
vt 0.468824 0.425000
vt 0.518797 0.338330
vt 0.552753 0.392559
vt 0.485694 0.542313
vt 0.470460 0.454540
vt 0.500000 0.450000
vt 0.508229 0.400000
vt 0.512954 0.400000
vt 0.512886 0.398767
vt 0.513586 0.411414
vt 0.549301 0.250000
vt 0.504167 0.461148
vt 0.555354 0.500000
vt 0.497474 0.506312
vt 0.499539 0.500000
vt 0.468029 0.410644
vt 0.468391 0.417192
vt 0.554595 0.468638
vt 0.500000 0.434914
vt 0.500000 0.450000
vt 0.514045 0.435955
vt 0.479241 0.562035
vt 0.471593 0.475000
vt 0.475000 0.475000
vt 0.515723 0.450000
vt 0.500000 0.475000
vt 0.516210 0.458791
vt 0.514898 0.435102
vt 0.514338 0.425000
vt 0.513670 0.412934
vt 0.528929 0.248811
vt 0.525329 0.237809
vt 0.524850 0.236344
vt 0.548635 0.234177
vt 0.492251 0.450000
vt 0.493517 0.434433
vt 0.525000 0.450000
vt 0.525000 0.436767
vt 0.478223 0.565147
vt 0.471772 0.478228
vt 0.517107 0.475000
vt 0.510386 0.192142
vt 0.505274 0.176517
vt 0.504793 0.175048
vt 0.521044 0.224713
vt 0.517858 0.214975
vt 0.513159 0.200615
vt 0.491565 0.458435
vt 0.500000 0.475000
vt 0.525000 0.475000
vt 0.528774 0.446226
vt 0.529516 0.437102
vt 0.471356 0.586133
vt 0.472977 0.500000
vt 0.475000 0.500000
vt 0.500000 0.500000
vt 0.517521 0.482479
vt 0.517192 0.476524
vt 0.502915 0.169308
vt 0.501339 0.164494
vt 0.548275 0.225603
vt 0.490218 0.475000
vt 0.500000 0.500000
vt 0.522368 0.525000
vt 0.500000 0.525000
vt 0.500000 0.550000
vt 0.522135 0.527865
vt 0.524348 0.500652
vt 0.524401 0.500000
vt 0.525000 0.492636
vt 0.526434 0.475000
vt 0.526561 0.473439
vt 0.528467 0.450000
vt 0.470751 0.587981
vt 0.473083 0.501917
vt 0.518492 0.500000
vt 0.517798 0.487473
vt 0.497388 0.152419
vt 0.495443 0.146474
vt 0.495028 0.145206
vt 0.547567 0.208765
vt 0.489353 0.485647
vt 0.488185 0.500000
vt 0.487140 0.512860
vt 0.486153 0.525000
vt 0.484927 0.540073
vt 0.484120 0.550000
vt 0.482714 0.567286
vt 0.520335 0.550000
vt 0.518069 0.575225
vt 0.518267 0.575254
vt 0.518282 0.575256
vt 0.518302 0.575000
vt 0.516530 0.575000
vt 0.517220 0.575101
vt 0.549449 0.640431
vt 0.549268 0.640347
vt 0.549217 0.640323
vt 0.549460 0.640170
vt 0.532944 0.632806
vt 0.550311 0.619920
vt 0.532805 0.632741
vt 0.532741 0.632715
vt 0.529293 0.631120
vt 0.550528 0.614758
vt 0.528864 0.630921
vt 0.528116 0.630576
vt 0.526861 0.629996
vt 0.526516 0.629837
vt 0.515254 0.624634
vt 0.551474 0.592258
vt 0.513631 0.623885
vt 0.551597 0.589346
vt 0.511400 0.622854
vt 0.511348 0.622828
vt 0.504263 0.619557
vt 0.503765 0.619327
vt 0.501294 0.618185
vt 0.552638 0.564597
vt 0.500993 0.618050
vt 0.552665 0.563935
vt 0.500468 0.617804
vt 0.500162 0.617662
vt 0.497726 0.616537
vt 0.552980 0.556449
vt 0.490586 0.613239
vt 0.553734 0.538523
vt 0.489997 0.612966
vt 0.553801 0.536936
vt 0.481862 0.609209
vt 0.554803 0.513111
vt 0.481664 0.609119
vt 0.481014 0.608818
vt 0.480666 0.608657
vt 0.477243 0.607075
vt 0.477060 0.606991
vt 0.473437 0.605317
vt 0.469772 0.603624
vt 0.469551 0.603522
vt 0.466176 0.601963
vt 0.474944 0.516437
vt 0.475000 0.516438
vt 0.473887 0.516422
vt 0.483441 0.516559
vt 0.486087 0.516596
vt 0.500000 0.516795
vt 0.500225 0.516798
vt 0.503886 0.516850
vt 0.506772 0.516891
vt 0.508090 0.516910
vt 0.518833 0.506167
vt 0.519437 0.517072
vt 0.518906 0.507483
vt 0.492004 0.135962
vt 0.492872 0.135562
vt 0.547112 0.197942
vt 0.494858 0.134644
vt 0.499104 0.132683
vt 0.546498 0.183353
vt 0.503931 0.130453
vt 0.505320 0.129811
vt 0.545949 0.170281
vt 0.511830 0.126804
vt 0.545430 0.157941
vt 0.517457 0.124205
vt 0.520945 0.122593
vt 0.544785 0.142619
vt 0.526682 0.119943
vt 0.527685 0.119480
vt 0.544361 0.132529
vt 0.540055 0.113765
vt 0.541138 0.113265
vt 0.543622 0.114958
vt 0.543505 0.112172
vt 0.492894 0.571547
vt 0.500000 0.572585
vt 0.482491 0.570027
vt 0.487229 0.570720
vt 0.502107 0.572893
vt 0.519922 0.555078
vn -0.4146 -0.9100 -0.0036
vn -0.4145 -0.9100 -0.0036
vn -0.0000 0.0000 -1.0000
vn -0.7432 0.2466 0.6219
vn 0.0000 1.0000 0.0000
vn 0.9850 -0.0420 0.1675
vn -0.0000 -0.0000 1.0000
vn 0.0001 -0.0000 -1.0000
usemtl aiStandardSurface2SG
s 1
f 1/1/1 2/2/1 3/3/1
f 2/2/1 4/4/1 3/3/1
f 1/1/1 3/3/1 5/5/1
f 6/6/1 7/7/1 8/8/2 9/9/2
f 10/10/1 1/1/1 11/11/1 7/7/1 6/6/1 12/12/1
f 13/13/1 1/1/1 10/10/1 14/14/1
f 15/15/1 2/2/1 1/1/1 13/13/1 16/16/1 17/17/1
f 18/18/1 2/2/1 15/15/1 19/19/1
f 20/20/1 21/21/1 2/2/1 18/18/1 22/22/1 23/23/1
f 24/24/1 4/4/1 2/2/1 21/21/1
f 25/25/1 26/26/1 4/4/1 24/24/1
f 27/27/1 26/26/1 25/25/1 28/28/1
f 29/29/1 26/26/1 27/27/1 30/30/1 31/31/1
f 32/32/2 26/26/1 29/29/1 33/33/1 34/34/1 35/35/1 36/36/1 37/37/1 38/38/1 39/39/1
f 40/40/2 26/26/1 32/32/2
f 41/41/1 4/4/1 26/26/1 40/40/2 42/42/1 43/43/1 44/44/1 45/45/1 46/46/1 47/47/1 48/48/1 49/49/1
f 50/50/1 4/4/1 41/41/1
f 51/51/2 3/3/1 4/4/1 50/50/1 52/52/1 53/53/1 54/54/1 55/55/1
f 56/56/1 3/3/1 51/51/2
f 57/57/2 5/5/1 3/3/1 56/56/1 58/58/1 59/59/1 60/60/1 61/61/1 62/62/1 63/63/1 64/64/1
f 65/65/2 5/5/1 57/57/2 66/66/2
f 67/67/1 5/5/1 65/65/2
f 68/68/1 5/5/1 67/67/1
f 69/69/1 70/70/1 11/11/1 1/1/1 5/5/1 68/68/1 71/71/1
f 72/72/3 73/73/3 74/74/3
f 72/75/4 75/76/4 76/77/4 73/78/4
f 76/77/4 75/76/4 77/79/4
f 78/80/5 79/81/5 80/82/5
f 81/83/4 76/77/4 77/79/4 78/84/4
f 79/81/5 82/85/5 80/82/5
f 73/73/3 83/86/3 74/74/3
f 84/87/4 76/77/4 81/83/4
f 73/78/4 76/77/4 83/88/4
f 81/89/5 78/80/5 85/90/5
f 85/90/5 78/80/5 80/82/5
f 86/91/3 72/72/3 74/74/3
f 86/92/4 75/76/4 72/75/4
f 75/76/4 87/93/4 77/79/4
f 79/94/4 88/95/4 82/96/4
f 78/84/4 77/79/4 89/97/4 88/95/4 79/94/4
f 82/85/5 90/98/5 80/82/5
f 84/99/5 81/89/5 91/100/5
f 83/86/3 92/101/3 74/74/3
f 93/102/5 84/99/5 91/100/5
f 93/103/4 92/104/4 83/88/4 76/77/4 84/87/4
f 94/105/5 81/89/5 85/90/5
f 80/106/6 95/107/6 85/108/6
f 96/109/3 86/91/3 74/74/3
f 96/110/4 97/111/4 75/76/4 86/92/4
f 75/76/4 97/111/4 87/93/4
f 98/112/4 87/93/4 99/113/4 100/114/4
f 101/115/4 87/93/4 98/112/4
f 102/116/4 77/79/4 87/93/4 101/115/4
f 89/97/4 77/79/4 102/116/4 103/117/4
f 88/118/7 89/119/7 103/120/7 104/121/7 90/98/7 82/85/7
f 104/122/6 95/107/6 80/106/6 90/123/6
f 91/100/5 81/89/5 94/105/5
f 92/101/3 93/102/3 91/100/3 74/74/3
f 85/108/6 95/107/6 105/124/6 94/125/6
f 106/126/3 96/109/3 74/74/3
f 106/127/4 97/111/4 96/110/4
f 97/111/4 99/113/4 87/93/4
f 100/114/4 99/113/4 107/128/4
f 100/129/7 107/130/7 108/131/7 104/121/7 103/120/7 102/132/7 101/133/7 98/134/7
f 109/135/6 95/107/6 104/122/6
f 95/107/6 110/136/6 105/124/6
f 110/136/6 111/137/6 105/124/6
f 94/125/6 105/124/6 74/138/6 91/139/6
f 112/140/3 106/126/3 74/74/3
f 112/141/4 113/142/4 97/111/4 106/127/4
f 97/111/4 113/142/4 99/113/4
f 107/128/4 99/113/4 114/143/4 115/144/4 108/145/4
f 108/131/7 115/146/7 116/147/7 109/148/7 104/121/7
f 117/149/6 110/136/6 95/107/6 109/135/6
f 110/136/6 118/150/6 111/137/6
f 119/151/6 120/152/6 121/153/6 122/154/6
f 123/155/6 120/152/6 119/151/6
f 124/156/6 118/150/6 120/152/6 123/155/6
f 125/157/6 111/137/6 118/150/6 124/156/6
f 126/158/6 111/137/6 125/157/6
f 127/159/6 111/137/6 126/158/6
f 128/160/6 105/124/6 111/137/6 127/159/6
f 74/138/6 105/124/6 128/160/6
f 129/161/3 112/140/3 74/74/3
f 129/162/4 113/142/4 112/141/4
f 113/142/4 114/143/4 99/113/4
f 115/144/4 114/143/4 130/163/4 116/164/4
f 130/165/7 131/166/7 132/167/7 117/168/7 109/148/7 116/147/7
f 133/169/6 110/136/6 117/149/6
f 134/170/6 118/150/6 110/136/6 133/169/6
f 135/171/6 118/150/6 134/170/6
f 136/172/6 120/152/6 118/150/6 135/171/6
f 137/173/6 120/152/6 136/172/6
f 138/174/6 121/153/6 120/152/6 137/173/6
f 139/175/6 121/153/6 138/174/6
f 122/154/6 121/153/6 140/176/6
f 67/177/6 65/178/6 66/179/6 141/180/6 71/181/6 68/182/6
f 66/183/3 57/184/3 64/185/3 141/186/3
f 64/185/3 63/187/3 142/188/3 141/186/3
f 63/187/3 62/189/3 142/188/3
f 62/189/3 61/190/3 142/188/3
f 61/190/3 60/191/3 140/192/3 142/188/3
f 60/191/3 59/193/3 140/192/3
f 59/193/3 58/194/3 140/192/3
f 56/195/3 51/196/3 55/197/3 122/198/3 140/192/3 58/194/3
f 55/197/3 54/199/3 119/200/3 122/198/3
f 54/199/3 53/201/3 119/200/3
f 53/201/3 52/202/3 119/200/3
f 50/203/3 41/204/3 49/205/3 123/206/3 119/200/3 52/202/3
f 49/205/3 48/207/3 124/208/3 123/206/3
f 48/207/3 47/209/3 124/208/3
f 47/209/3 46/210/3 124/208/3
f 46/210/3 45/211/3 125/212/3 124/208/3
f 45/211/3 44/213/3 126/214/3 125/212/3
f 44/213/3 43/215/3 127/216/3 126/214/3
f 43/215/3 42/217/3 128/218/3 127/216/3
f 40/219/3 32/220/3 39/221/3 74/74/3 128/218/3 42/217/3
f 39/221/3 38/222/8 74/74/3
f 38/222/8 37/223/3 74/74/3
f 37/223/3 36/224/3 74/74/3
f 36/224/3 35/225/3 74/74/3
f 35/225/3 34/226/3 74/74/3
f 34/226/3 33/227/3 129/161/3 74/74/3
f 29/228/4 31/229/4 113/142/4 129/162/4 33/230/4
f 31/229/4 30/231/4 114/143/4 113/142/4
f 27/232/4 28/233/4 114/143/4 30/231/4
f 28/233/4 25/234/4 24/235/4 21/236/4 20/237/4 131/238/4 130/163/4 114/143/4
f 20/237/4 23/239/4 132/240/4 131/238/4
f 23/241/7 22/242/7 133/243/7 117/168/7 132/167/7
f 22/242/7 18/244/7 19/245/7 134/246/7 133/243/7
f 19/245/7 15/247/7 17/248/7 135/249/7 134/246/7
f 17/248/7 16/250/7 136/251/7 135/249/7
f 16/250/7 13/252/7 14/253/7 137/254/7 136/251/7
f 14/253/7 10/255/7 12/256/7 138/257/7 137/254/7
f 12/256/7 6/258/7 9/259/7 139/260/7 138/257/7
f 9/259/7 8/261/7 139/260/7
f 11/262/6 70/263/6 121/153/6 139/175/6 8/264/6 7/265/6
f 70/263/6 69/266/6 142/267/6 140/176/6 121/153/6
f 69/266/6 71/181/6 141/180/6 142/267/6
